<svg width="1000" height="1000" viewBox="0 0 1000 1000" fill="none" xmlns="http://www.w3.org/2000/svg">
<path d="M230.891 5.51283C254.134 4.28865 282.853 5.63186 306.565 5.69833L455.61 5.74063L957.304 5.39621C954.881 49.8256 941.618 75.8875 902.301 96.9692C931.951 128.074 948.084 157.679 959.655 199.21C970.12 236.766 968.174 270.81 968.174 309.479L968.156 396.901L968.162 646.682L968.217 835.035L968.265 898.787C968.229 912.467 968.283 926.31 967.486 939.839C965.987 965.193 949.147 987.072 924.241 993.193C913.793 995.761 904.621 995.556 894.518 991.538C883.932 987.326 874.578 980.613 865.019 974.552C852.898 966.885 840.723 959.302 828.5 951.809C788.741 927.748 746.97 903.942 706.77 880.316C674.673 861.071 642.679 841.651 610.788 822.062C587.204 807.355 562.866 791.022 538.563 777.62C529.754 781.644 516.605 790.871 508.62 796.515C495.244 806.019 481.987 815.693 468.853 825.53L309.273 943.138L267.871 974.009C253.919 984.214 240.61 995.054 222.218 995C196.778 994.927 173.358 975.175 170.878 949.465C168.608 925.924 169.321 901.917 169.344 878.207L169.386 758.575L169.738 355.395C123.9 344.968 97.0517 338.218 54.6416 315.3C50.0452 319.167 43.0367 324.126 38.0983 327.828C25.6069 265.711 28.5381 204.528 83.1833 163.78C110.791 143.191 136.493 131.214 169.884 123.208C168.141 67.4536 158.232 9.70985 230.891 5.51283Z" fill="#1A211F"/>
<path d="M332.295 116.663C356.377 84.6937 393.17 60.688 430.624 47.3483C463.744 35.5518 503.634 37.2256 538.394 37.2534L628.939 37.309C724.716 37.3192 822.107 36.2781 917.69 37.3319C901.521 62.5672 883.69 72.7721 854.397 79.203C846.626 80.8326 838.789 82.1166 830.904 83.0508C872.5 117.687 902.095 139.959 921.842 193.625C935.34 230.314 934.953 246.802 935.038 285.583L935.062 349.833L935.056 551.951L935.068 801.735L935.008 883.676C935.014 899.646 935.183 915.597 934.651 931.543C934.156 946.51 923.394 956.8 908.693 957.7C896.397 958.456 882.029 947.882 871.708 941.549L831.587 916.486L786.493 889.029C780.312 885.186 771.502 879.935 765.816 875.754C761.018 873.156 755.858 869.875 751.193 866.938C720.915 847.881 689.139 830.322 659.362 810.551C635.694 797.264 564.648 747.964 544.473 744.629C539.185 743.753 533.083 744.001 528.031 745.783C518.919 748.998 510.012 755.36 501.827 760.406C451.498 791.451 406.8 830.134 359.142 864.914C360.044 807.234 339.035 751.662 337.995 694.067C337.75 680.483 339.617 666.266 341.57 652.84C341.308 648.544 344.415 636.821 345.656 632.157C359.255 581.093 389.492 536.536 415.112 490.965C425.167 473.082 435.524 454.8 442.647 435.51C436.991 427.778 423.022 414.903 415.986 407.565C393.168 383.77 368.907 361.421 345.334 338.38C352.464 331.13 359.662 323.946 366.927 316.831C383.304 300.83 414.173 275.876 413.715 251.531C412.889 207.631 358.649 177.762 339.958 141.325C335.289 132.222 333.949 126.44 332.295 116.663Z" fill="white"/>
<path d="M366.927 316.831C372.018 318.895 381.421 320.994 387.071 322.64C397.544 325.765 407.762 329.689 417.636 334.376C484.647 366.548 538.932 408.882 616.376 406.787C639.271 406.314 661.869 401.524 682.987 392.671C761.484 359.359 793.834 278.789 767.417 199.109C832.928 290.52 785.163 397.288 702.16 454.893C664.782 480.836 624.244 493.92 581.971 509.044L512.747 534.041C452.906 554.99 408.086 573.171 369.51 624.972C365.792 629.969 342.431 650.296 341.57 652.84C341.308 648.544 344.415 636.821 345.656 632.157C359.255 581.093 389.492 536.536 415.112 490.965C425.167 473.082 435.524 454.8 442.647 435.51C436.991 427.778 423.022 414.903 415.986 407.565C393.168 383.77 368.907 361.421 345.334 338.38C352.464 331.13 359.662 323.946 366.927 316.831Z" fill="#D8D7D6"/>
<path d="M659.362 810.551C661.67 803.282 657.555 771.602 656.915 761.687C656.359 753.185 656.196 744.659 656.42 736.14C659.362 627.317 709.248 543.02 781.617 465.126C777.502 478.264 771.816 491.497 766.692 504.409C759.121 523.473 751.871 542.192 745.81 561.908C715.006 662.072 714.867 774.69 762.65 869.682C763.671 871.712 764.94 873.706 765.816 875.754C761.019 873.156 755.859 869.875 751.194 866.938C720.916 847.881 689.139 830.322 659.362 810.551Z" fill="#D8D7D6"/>
<path d="M554.074 153.573C564.799 178.534 556.932 207.591 535.089 223.738C513.239 239.884 483.154 238.873 462.439 221.298C441.724 203.723 435.828 174.204 448.199 150.018C460.572 125.833 487.96 113.342 514.334 119.855C532.128 124.25 546.841 136.73 554.074 153.573Z" fill="#1A211F"/>
<path d="M497.075 149.476C512.117 147.659 525.79 158.364 527.639 173.403C529.488 188.441 518.808 202.136 503.773 204.014C488.696 205.897 474.952 195.182 473.1 180.101C471.248 165.019 481.989 151.298 497.075 149.476Z" fill="#88B838"/>
<path d="M53.7914 287.279C54.2494 251.739 58.7479 225.536 84.1566 198.241C121.342 158.295 184.785 141.102 237.33 135.061C254.857 133.045 282.783 132.627 300.582 131.875C301.2 137.54 302.335 143.137 303.974 148.595C309.086 163.368 317.498 172.711 327.12 184.829C337.206 197.457 347.431 209.973 357.794 222.374C364.695 230.64 373.085 240.263 378.003 249.815C349.258 250.747 320.905 250.411 292.183 250.721C255.461 251.077 218.749 252.15 182.068 253.94C162.749 254.874 141.171 255.248 122.228 257.34C103.478 259.41 82.443 270.746 66.8634 281.034C64.4078 282.656 56.1183 288.633 53.6838 288.714L53.7914 287.279Z" fill="#EC6E25"/>
<path d="M76.4163 301.492C87.5337 292.394 101.881 286.242 115.945 283.355C167.913 272.688 221.833 276.746 274.54 275.672C288.8 275.381 303.06 275.089 317.286 275.027C337.002 275.05 356.717 275.352 376.425 275.934C371.961 280.931 367.274 286.378 362.647 291.175L335.855 321.832C331.704 326.578 324.989 334.7 320.695 338.843C291.935 345.853 259.199 345.118 229.749 342.489C189.901 338.933 149.542 326.499 110.977 315.974C106.521 314.758 76.0743 305.904 74.7595 303.464C75.3964 302.252 75.3275 302.318 76.4163 301.492Z" fill="#D7402E"/>
</svg>
